<?xml version="1.0" encoding="UTF-8"?>
<svg id="Capa_2" data-name="Capa 2" xmlns="http://www.w3.org/2000/svg" viewBox="0 0 71.73 66.95">
  <defs>
    <style>
      .cls-1 {
        fill: #fff;
      }
    </style>
  </defs>
  <g id="Capa_1-2" data-name="Capa 1">
    <path class="cls-1" d="M71.2,59.14c-.5-.2-.76,.19-.86,.55-.18,.65-.44,1.26-.87,1.78-1.73,2.09-4.07,3.04-6.68,3.06-3.92,.03-6.68-2.1-8.67-5.31-3.28-5.29-3.88-11.15-3.29-17.16,.58-5.86,2.12-11.49,4.48-16.9,.7-1.61,.46-2.89-.75-4.14-1.31-1.35-2.99-2.08-4.68-2.77-.64-.26-1.24-.08-1.7,.48-1.29,1.55-2.8,2.88-4.23,4.3-1.33,1.31-2.7,2.59-4.06,3.88,.47-2.08,1.12-4.03,1.67-6.02,1.01-3.69,1.99-7.39,1.82-11.28-.12-2.8-2.28-4.68-4.99-4.27-1.41,.21-2.51,1.04-3.61,2.09-.22-2.05-1.3-4.5-2.6-5.87-.93-.97-2-1.7-3.43-1.53-.79,.09-1.55,.5-1.38,1.4,.35,1.86-.07,3.65-.38,5.43-1,5.73-2.44,11.38-3.92,17-.58,2.2-1.17,4.39-1.79,6.68-1.06-.99-2.08-1.69-3.37-1.98-2.74-.61-4.93,.43-6.72,2.35C5.15,37.45,1.25,45.08,.09,53.95c-.39,3,.42,5.82,2.64,8.05,3.03,3.03,7.03,2.6,9.3-.96,.24-.38,.46-.79,.69-1.18,1.18-2.02,2.1-4.17,3.04-6.32,.3,.2,.31,.51,.4,.76,.42,1.12,.97,2.18,1.68,3.15,2.08,2.82,6.07,3.03,8.26,.58,.99-1.11,1.91-2.26,2.69-3.52,4.03-6.46,6.91-13.47,9.43-20.61,.56-1.58,1.21-2.52,2.81-3.05,1.68-.56,3.11-1.71,4.73-2.87-.15,.61-.24,1.01-.35,1.41-1.85,6.88-2.99,13.83-1.78,20.95,.88,5.15,3.09,9.64,7.29,12.91,4.33,3.37,9.2,4.63,14.55,2.95,3.04-.96,5.28-2.88,6.21-6.08,.15-.53-.03-.82-.48-1M19.67,38.26c-1.71,6.38-4.07,12.5-7.19,18.33-.58,1.08-1.23,2.14-2.08,3.04-.31,.33-.65,.8-1.12,.66-.55-.15-.51-.79-.57-1.25-.07-.52-.02-1.05-.02-1.58,.09-3.91,1.31-7.56,2.72-11.16,1.49-3.79,3.28-7.44,5.58-10.82,.56-.82,1.16-1.6,1.94-2.23,.27-.21,.57-.51,.93-.34,.39,.17,.47,.58,.48,.99,.05,1.49-.29,2.94-.67,4.36m16.62-5.28c-1.12,3.58-2.56,7.04-4.14,10.44-1.73,3.72-3.53,7.41-5.94,10.75-.43,.59-.9,1.64-1.64,1.34-.82-.34-.47-1.46-.37-2.22,.47-3.59,1.41-7.08,2.34-10.56,1.46-5.4,2.98-10.79,4.53-16.41,.59,1.33,1.01,2.48,1.72,3.48,.82,1.15,1.76,2.12,3.22,2.36,.72,.12,.39,.48,.28,.82m1.38-6.1c-2.02-1.58-2.39-3.63-2.08-5.86,.32-2.34,1.04-4.57,2.32-6.58,.43-.67,.96-1.65,1.79-1.35,.86,.31,.54,1.39,.43,2.17-.54,3.89-1.62,7.67-2.46,11.61"/>
  </g>
</svg>